<?xml version="1.0" standalone="no"?>
<!DOCTYPE svg PUBLIC "-//W3C//DTD SVG 20010904//EN"
 "http://www.w3.org/TR/2001/REC-SVG-20010904/DTD/svg10.dtd">
<svg version="1.0" xmlns="http://www.w3.org/2000/svg"
 width="500.000000pt" height="500.000000pt" viewBox="0 0 500.000000 500.000000"
 preserveAspectRatio="xMidYMid meet">

<g transform="translate(0.000000,500.000000) scale(0.100000,-0.100000)"
fill="#000000" stroke="none">
<path d="M2335 4123 c-11 -1 -55 -5 -97 -8 l-78 -7 0 -45 0 -46 49 5 50 5 5
-36 c3 -20 8 -81 11 -136 4 -55 9 -108 11 -117 4 -14 -4 -18 -45 -24 l-51 -7
0 -44 0 -45 89 7 c49 4 115 10 147 14 l59 6 3 43 3 42 -50 0 c-49 0 -51 1 -51
28 0 40 -28 364 -32 366 -2 1 -12 1 -23 -1z m25 -218 l15 -190 48 -3 c41 -3
47 -6 47 -26 0 -22 -4 -23 -97 -29 -153 -11 -163 -10 -163 12 0 20 25 31 73
31 32 0 31 -8 14 205 l-12 140 -52 3 c-44 3 -53 6 -53 22 0 23 19 28 100 27
l65 -2 15 -190z"/>
<path d="M2635 3978 c-68 -24 -114 -98 -115 -184 0 -122 132 -206 248 -158 62
26 71 43 43 83 l-23 31 -25 -20 c-33 -26 -73 -25 -107 1 -45 36 -33 41 84 33
l110 -7 0 52 c0 88 -37 145 -109 170 -41 13 -66 13 -106 -1z m122 -25 c47 -22
73 -66 73 -126 l0 -47 -92 5 c-51 3 -103 8 -115 11 -30 6 -31 -23 -2 -59 30
-39 85 -53 132 -34 35 15 37 15 47 -3 26 -48 -127 -70 -191 -27 -50 33 -71 81
-65 144 6 66 31 109 76 133 44 24 92 25 137 3z"/>
<path d="M2635 3894 c-14 -15 -25 -35 -25 -45 0 -16 8 -19 58 -19 31 0 67 -3
80 -6 19 -5 22 -2 22 20 0 15 -11 38 -25 51 -33 34 -78 33 -110 -1z m88 -6
c35 -28 25 -42 -28 -39 -27 2 -52 5 -54 7 -8 8 32 44 49 44 9 0 24 -6 33 -12z"/>
<path d="M2920 3952 c0 -4 13 -45 30 -92 16 -46 27 -91 24 -100 -3 -8 -37 -42
-75 -75 l-70 -60 28 -11 c68 -27 78 -26 127 17 46 40 46 41 55 17 34 -90 38
-95 77 -102 22 -4 58 -16 81 -26 l42 -19 33 39 33 38 53 -24 54 -24 -7 -49 -7
-49 36 -12 c20 -6 38 -15 41 -19 2 -5 -9 -29 -25 -55 -17 -26 -30 -49 -30 -51
0 -6 73 -55 81 -55 4 0 22 24 39 53 18 28 34 53 35 55 1 2 16 -11 33 -27 76
-76 186 -40 246 81 51 103 25 193 -65 219 -21 7 -39 16 -39 20 0 9 -63 49 -76
49 -5 0 -43 -55 -84 -121 -41 -66 -76 -114 -78 -105 -2 8 4 92 12 186 22 232
22 226 -14 245 -16 8 -35 15 -42 15 -7 0 -76 -72 -152 -160 -76 -88 -142 -160
-146 -160 -4 0 -18 32 -31 71 l-24 71 74 69 c41 38 72 71 70 73 -2 1 -26 8
-52 15 -47 11 -49 11 -91 -24 -24 -19 -46 -35 -49 -35 -3 0 -13 22 -22 50 -15
46 -20 51 -58 60 -23 6 -48 13 -54 15 -7 2 -13 1 -13 -3z m72 -31 c17 -6 30
-25 43 -65 11 -31 24 -56 29 -56 6 0 29 18 51 40 36 35 45 39 73 34 18 -4 32
-10 32 -14 0 -3 -29 -30 -65 -59 -36 -29 -65 -56 -65 -59 0 -4 13 -41 30 -82
36 -93 37 -99 4 -92 -25 4 -46 39 -77 125 -6 16 -14 13 -62 -29 -50 -43 -58
-46 -87 -38 l-31 9 72 60 c39 32 71 62 71 66 0 4 -13 40 -30 80 -39 97 -39
100 12 80z m512 -44 c16 -12 16 -23 0 -227 -10 -118 -19 -217 -21 -219 -1 -2
-15 1 -30 8 -25 10 -28 16 -28 62 l0 51 -64 26 -65 26 -32 -38 c-29 -34 -34
-36 -58 -25 -14 7 -26 15 -26 18 0 4 26 36 58 72 31 36 95 108 140 162 46 53
89 97 96 97 7 0 20 -6 30 -13z m201 -223 c20 -13 23 -20 15 -34 -9 -17 -7 -18
24 -13 38 6 84 -16 105 -50 45 -71 -37 -229 -130 -252 -15 -4 -41 0 -63 9 -33
14 -44 28 -61 80 -5 18 -8 17 -25 -11 -69 -115 -68 -113 -95 -101 -14 6 -24
16 -23 22 3 13 221 366 226 366 1 0 14 -7 27 -16z"/>
<path d="M3396 3733 c-37 -46 -67 -85 -65 -86 2 -2 28 -12 57 -24 l52 -21 4
21 c9 43 27 189 24 191 -2 2 -34 -35 -72 -81z m36 -48 c-7 -42 -11 -49 -27
-47 -37 6 -38 20 -4 61 18 23 34 40 35 38 2 -1 0 -25 -4 -52z"/>
<path d="M3699 3566 c-34 -18 -93 -120 -85 -150 10 -39 49 -61 89 -50 42 13
97 85 97 128 0 60 -52 98 -101 72z m65 -32 c29 -28 17 -73 -32 -126 -29 -32
-57 -35 -84 -11 -24 22 -23 26 18 94 38 63 66 75 98 43z"/>
<path d="M1937 3930 c-16 -5 -35 -14 -42 -20 -8 -7 -34 -13 -59 -15 -53 -3
-65 -10 -60 -33 37 -171 108 -442 116 -442 6 0 28 5 50 12 38 11 39 13 33 42
-4 17 -9 47 -12 66 l-5 35 41 1 c80 2 125 59 125 156 -1 83 -43 164 -98 189
-45 21 -49 21 -89 9z m91 -30 c57 -35 95 -154 72 -225 -7 -22 -24 -44 -44 -56
-35 -21 -96 -25 -114 -7 -21 21 -22 3 -1 -71 22 -78 18 -94 -24 -89 -16 3 -28
39 -71 210 -54 217 -54 218 -5 218 11 0 19 -7 19 -17 1 -14 5 -13 23 9 40 49
93 59 145 28z"/>
<path d="M1902 3844 c-26 -18 -27 -36 -6 -118 17 -67 33 -86 76 -86 43 0 68
32 68 85 0 108 -69 168 -138 119z m86 -25 c31 -33 43 -124 20 -147 -18 -18
-66 -15 -77 6 -5 9 -15 43 -22 76 -12 54 -11 60 6 72 27 20 51 17 73 -7z"/>
<path d="M1603 3816 c-14 -18 -26 -23 -46 -19 -18 4 -33 -2 -50 -19 -13 -13
-28 -23 -34 -21 -5 2 -26 -4 -47 -12 -44 -19 -46 -8 30 -184 58 -135 63 -151
36 -109 l-18 28 -38 -26 c-21 -14 -39 -24 -40 -22 -2 1 -34 52 -71 111 -64
103 -68 107 -89 94 -11 -7 -49 -31 -83 -51 l-62 -38 20 -39 c10 -22 22 -39 25
-39 3 0 22 11 42 25 l36 25 43 -68 c24 -37 43 -70 43 -74 0 -5 -17 -19 -68
-54 -4 -2 39 -74 44 -74 3 0 58 33 122 74 64 40 137 84 162 96 25 12 46 24 48
25 1 1 -18 51 -43 110 -43 102 -56 153 -36 141 7 -5 40 -76 98 -214 l13 -32
40 20 c22 11 40 24 40 29 0 5 -20 56 -45 114 -47 111 -53 131 -33 125 6 -2 34
-57 61 -121 l50 -116 36 15 c20 8 39 18 43 22 11 11 -99 264 -123 285 -31 25
-83 22 -106 -7z m105 -18 c6 -8 33 -65 60 -128 49 -114 49 -115 28 -127 -11
-7 -23 -12 -26 -13 -3 0 -28 51 -54 114 -27 63 -55 117 -64 121 -9 3 -23 -2
-33 -12 -16 -17 -14 -24 32 -132 27 -63 48 -115 47 -116 -2 -1 -13 -7 -24 -13
-21 -11 -24 -6 -65 91 -49 119 -71 147 -97 131 -24 -16 -20 -35 31 -156 l45
-106 -25 -7 c-14 -3 -27 -4 -29 -2 -2 2 -30 65 -63 140 l-58 135 25 11 c20 10
27 9 38 -6 12 -17 14 -15 24 15 14 39 52 53 79 28 17 -16 19 -15 24 13 10 48
71 59 105 19z m-389 -280 c36 -57 66 -105 68 -107 2 -3 21 5 43 18 l39 22 12
-23 c6 -12 8 -23 3 -25 -5 -2 -52 -30 -104 -63 -70 -43 -98 -56 -107 -48 -22
18 -15 33 22 51 19 9 35 21 35 27 0 8 -75 133 -106 178 -1 2 -19 -8 -40 -22
-28 -19 -41 -23 -51 -14 -7 6 -13 16 -13 22 0 11 106 83 125 85 6 1 39 -45 74
-101z"/>
<path d="M1136 3727 c-21 -16 -24 -60 -6 -82 17 -21 56 -19 80 5 53 53 -14
121 -74 77z m74 -37 c0 -18 -27 -40 -49 -40 -6 0 -16 10 -22 22 -10 18 -8 24
11 40 26 21 60 9 60 -22z"/>
<path d="M885 3518 c-74 -26 -135 -106 -135 -174 0 -35 31 -88 61 -105 37 -19
109 -13 178 16 52 21 69 25 88 16 33 -15 30 -53 -8 -85 -35 -30 -56 -32 -85
-11 -20 13 -24 12 -59 -18 l-38 -33 32 -27 c91 -76 260 10 278 143 7 47 -23
102 -65 118 -58 23 -72 22 -148 -3 -98 -33 -129 -31 -129 9 0 20 9 35 28 50
24 18 32 19 59 8 28 -10 34 -9 64 16 37 31 37 39 3 64 -31 23 -85 31 -124 16z
m100 -20 c54 -24 16 -60 -54 -51 -37 5 -46 2 -72 -22 -30 -30 -37 -62 -19 -96
14 -25 64 -25 125 1 70 30 117 35 153 16 80 -41 83 -126 5 -197 -61 -58 -119
-72 -175 -43 l-30 16 22 23 c20 21 23 22 50 8 83 -41 178 92 98 137 -26 14
-33 13 -105 -13 -119 -42 -176 -33 -203 33 -43 104 100 236 205 188z"/>
<path d="M3843 3305 c-84 -95 -153 -178 -153 -184 0 -5 16 -22 36 -38 l37 -28
48 55 c30 34 49 49 49 39 0 -23 62 -76 99 -84 91 -20 233 125 218 222 -9 51
-33 82 -80 104 -23 10 -38 19 -33 19 6 0 -5 16 -24 35 -19 19 -36 35 -39 35
-4 0 -75 -79 -158 -175z m182 129 c16 -12 18 -18 7 -34 -11 -19 -10 -20 24
-20 45 0 104 -53 104 -94 0 -38 -23 -87 -60 -130 -41 -46 -78 -66 -125 -66
-48 0 -95 45 -95 89 0 32 -13 41 -27 17 -4 -7 -27 -34 -50 -61 l-42 -47 -25
19 -25 20 142 161 c77 89 144 162 147 162 3 0 14 -7 25 -16z"/>
<path d="M3977 3331 c-18 -17 -46 -48 -61 -70 -29 -42 -27 -58 10 -95 37 -38
122 2 160 75 19 38 18 54 -8 83 -37 39 -61 41 -101 7z m81 -13 c7 -7 12 -26
12 -43 0 -65 -99 -132 -138 -93 -21 21 -13 48 30 99 42 50 72 61 96 37z"/>
<path d="M1470 3260 l-145 -6 145 -4 145 -5 0 -50 0 -50 -95 -5 -95 -6 95 -4
95 -5 0 -50 0 -50 -40 -6 c-42 -6 -30 -19 15 -16 24 2 25 -1 25 -53 l0 -55
-95 -6 -95 -5 98 -2 98 -2 -3 -52 c-3 -52 -4 -53 -35 -53 -31 0 -60 -14 -32
-16 8 -1 25 -2 39 -2 23 -2 25 -6 25 -52 l0 -50 -95 -5 -95 -6 95 -4 95 -5 0
-50 c0 -50 0 -50 -32 -50 -18 0 -32 -4 -30 -10 1 -5 16 -10 32 -10 30 0 30 -1
30 -55 l0 -55 -95 -6 -95 -5 98 -2 98 -2 -3 -52 c-3 -53 -3 -53 -35 -51 -17 2
-35 -2 -38 -7 -3 -6 0 -10 7 -11 7 -1 24 -2 38 -2 23 -2 25 -6 28 -59 l3 -58
-97 0 c-54 0 -94 -3 -90 -7 4 -4 46 -8 94 -8 l87 0 3 -52 3 -53 -40 0 c-23 0
-41 -4 -41 -10 0 -5 18 -10 40 -10 l40 0 0 -55 0 -55 -97 -2 -98 -2 95 -5 95
-6 3 -52 3 -53 -40 0 c-23 0 -41 -4 -41 -10 0 -5 18 -10 40 -10 l40 0 0 -50 0
-50 -97 0 c-53 0 -93 -3 -89 -7 4 -4 46 -8 94 -8 l87 0 3 -52 3 -53 -40 0
c-23 0 -41 -4 -41 -10 0 -5 18 -10 40 -10 l40 0 0 -55 0 -55 -97 -2 -98 -2 95
-5 95 -6 3 -53 3 -52 -183 2 -183 3 -5 980 -5 980 0 -990 0 -990 195 0 195 0
3 991 c2 789 0 993 -10 995 -7 2 -78 2 -158 -1z"/>
<path d="M1650 1470 l0 -200 995 0 995 0 0 200 0 200 -995 0 -995 0 0 -200z
m122 88 l2 -93 3 93 4 92 54 0 55 0 0 -41 c0 -24 4 -38 10 -34 6 3 10 22 10
41 l0 34 55 0 55 0 2 -92 2 -93 3 93 4 92 54 0 55 0 0 -41 c0 -26 4 -38 11
-33 6 3 9 22 7 40 l-4 34 53 0 53 0 2 -92 2 -93 3 93 4 92 54 0 55 0 0 -41 c0
-24 4 -38 10 -34 6 3 10 22 10 41 l0 34 55 0 55 0 2 -92 2 -93 3 93 4 92 54 0
55 0 0 -41 c0 -26 4 -38 11 -33 6 3 9 22 7 40 l-4 34 58 0 58 0 0 -90 c0 -53
4 -90 10 -90 6 0 10 37 10 90 l0 90 50 0 50 0 0 -40 c0 -22 5 -40 10 -40 6 0
10 18 10 40 l0 40 55 0 55 0 0 -90 c0 -53 4 -90 10 -90 6 0 10 37 10 90 l0 90
50 0 50 0 0 -40 c0 -22 5 -40 10 -40 6 0 10 18 10 40 l0 40 50 0 50 0 0 -90
c0 -53 4 -90 10 -90 6 0 10 37 10 90 l0 90 50 0 50 0 0 -40 c0 -22 5 -40 10
-40 6 0 10 18 10 40 l0 40 55 0 55 0 0 -90 c0 -53 4 -90 10 -90 6 0 10 37 10
90 l0 90 50 0 50 0 0 -180 0 -180 -977 2 -978 3 -3 178 -2 177 55 0 55 0 2
-92z"/>
</g>
</svg>
